<svg width="154" height="192" viewBox="0 0 154 192" fill="none" xmlns="http://www.w3.org/2000/svg">
<g id="Invoice" filter="url(#filter0_dd_138_376)">
<path id="Vector" d="M43.3173 130.826L43.3134 130.825C42.4637 130.473 41.9061 129.64 41.9061 128.717V23.2812C41.9061 22.0199 42.926 21 44.1874 21H109.812C111.074 21 112.094 22.0198 112.094 23.2812C112.094 23.2813 112.094 23.2813 112.094 23.2814V128.718C112.094 129.64 111.536 130.473 110.687 130.825L110.681 130.827C109.859 131.173 108.864 130.995 108.2 130.33C105.466 127.597 101.034 127.597 98.3003 130.33C97.4092 131.222 95.9658 131.222 95.0746 130.33C92.3411 127.597 87.9089 127.597 85.1753 130.33C84.2842 131.222 82.8408 131.222 81.9496 130.33C79.2161 127.597 74.7839 127.597 72.0503 130.33C71.1592 131.222 69.7158 131.222 68.8246 130.33C66.0911 127.597 61.6589 127.597 58.9253 130.33C58.0342 131.222 56.5908 131.222 55.6996 130.33C52.9661 127.597 48.5339 127.597 45.8003 130.33C45.1437 130.987 44.1588 131.178 43.3173 130.826Z" fill="url(#paint0_linear_138_376)" stroke="url(#paint1_linear_138_376)" stroke-width="2"/>
<g id="Group">
<g id="Group_2">
<path id="Vector_2" d="M77.0002 55.3029C75.1929 55.3029 73.719 53.832 73.719 52.0216C73.719 50.2112 75.1929 48.7404 77.0002 48.7404C78.8076 48.7404 80.2815 50.2112 80.2815 52.0216C80.2815 53.8353 81.7491 55.3029 83.5627 55.3029C85.3764 55.3029 86.844 53.8353 86.844 52.0216C86.844 47.7494 84.093 44.1414 80.2815 42.7823V38.8966C80.2815 37.0829 78.8139 35.6154 77.0002 35.6154C75.1866 35.6154 73.719 37.0829 73.719 38.8966V42.7823C69.9075 44.1414 67.1565 47.7494 67.1565 52.0216C67.1565 57.4497 71.5722 61.8654 77.0002 61.8654C78.8076 61.8654 80.2815 63.3362 80.2815 65.1466C80.2815 66.957 78.8076 68.4279 77.0002 68.4279C75.1929 68.4279 73.719 66.957 73.719 65.1466C73.719 63.333 72.2514 61.8654 70.4377 61.8654C68.6241 61.8654 67.1565 63.333 67.1565 65.1466C67.1565 69.4188 69.9075 73.0269 73.719 74.386V78.2716C73.719 80.0853 75.1866 81.5529 77.0002 81.5529C78.8139 81.5529 80.2815 80.0853 80.2815 78.2716V74.386C84.093 73.0271 86.844 69.4188 86.844 65.1466C86.844 59.7185 82.4285 55.3029 77.0002 55.3029ZM77.0002 88.1154H57.3127C55.4991 88.1154 54.0315 89.583 54.0315 91.3966C54.0315 93.2103 55.4991 94.6779 57.3127 94.6779H77.0002C78.8139 94.6779 80.2815 93.2103 80.2815 91.3966C80.2815 89.583 78.8139 88.1154 77.0002 88.1154ZM77.0002 101.24H57.3127C55.4991 101.24 54.0315 102.708 54.0315 104.522C54.0315 106.335 55.4991 107.803 57.3127 107.803H77.0002C78.8139 107.803 80.2815 106.335 80.2815 104.522C80.2815 102.708 78.8139 101.24 77.0002 101.24ZM90.1252 94.6779H96.6877C98.5014 94.6779 99.969 93.2103 99.969 91.3966C99.969 89.583 98.5014 88.1154 96.6877 88.1154H90.1252C88.3116 88.1154 86.844 89.583 86.844 91.3966C86.844 93.2103 88.3116 94.6779 90.1252 94.6779ZM96.6877 101.24H90.1252C88.3116 101.24 86.844 102.708 86.844 104.522C86.844 106.335 88.3116 107.803 90.1252 107.803H96.6877C98.5014 107.803 99.969 106.335 99.969 104.522C99.969 102.708 98.5014 101.24 96.6877 101.24Z" fill="white"/>
</g>
</g>
</g>
<defs>
<filter id="filter0_dd_138_376" x="0.906128" y="0" width="152.188" height="192" filterUnits="userSpaceOnUse" color-interpolation-filters="sRGB">
<feFlood flood-opacity="0" result="BackgroundImageFix"/>
<feColorMatrix in="SourceAlpha" type="matrix" values="0 0 0 0 0 0 0 0 0 0 0 0 0 0 0 0 0 0 127 0" result="hardAlpha"/>
<feOffset dy="20"/>
<feGaussianBlur stdDeviation="20"/>
<feColorMatrix type="matrix" values="0 0 0 0 1 0 0 0 0 0.680498 0 0 0 0 0 0 0 0 0.29 0"/>
<feBlend mode="normal" in2="BackgroundImageFix" result="effect1_dropShadow_138_376"/>
<feColorMatrix in="SourceAlpha" type="matrix" values="0 0 0 0 0 0 0 0 0 0 0 0 0 0 0 0 0 0 127 0" result="hardAlpha"/>
<feOffset dy="5"/>
<feGaussianBlur stdDeviation="5"/>
<feColorMatrix type="matrix" values="0 0 0 0 1 0 0 0 0 0.680498 0 0 0 0 0 0 0 0 0.26 0"/>
<feBlend mode="normal" in2="effect1_dropShadow_138_376" result="effect2_dropShadow_138_376"/>
<feBlend mode="normal" in="SourceGraphic" in2="effect2_dropShadow_138_376" result="shape"/>
</filter>
<linearGradient id="paint0_linear_138_376" x1="77" y1="-22.8026" x2="77" y2="169.452" gradientUnits="userSpaceOnUse">
<stop offset="0.630208" stop-color="#FFAE00"/>
<stop offset="1" stop-color="#FFCD1E"/>
</linearGradient>
<linearGradient id="paint1_linear_138_376" x1="77" y1="20" x2="77" y2="132" gradientUnits="userSpaceOnUse">
<stop stop-color="#FF9F00"/>
<stop offset="1" stop-color="#FFB800"/>
</linearGradient>
</defs>
</svg>
