<svg width="168" height="192" viewBox="0 0 168 192" fill="none" xmlns="http://www.w3.org/2000/svg">
<g id="menu 2" clip-path="url(#clip0_138_209)" filter="url(#filter0_dd_138_209)">
<rect id="Rectangle 332" x="41.5" y="21" width="85" height="110" rx="16" fill="url(#paint0_linear_138_209)" stroke="url(#paint1_linear_138_209)" stroke-width="2"/>
<g id="Group">
<path id="Vector" d="M109.411 76.1077C109.411 74.1433 107.815 72.5538 105.842 72.5538H102.274V69C102.274 60.4196 96.1354 53.2415 87.9992 51.5904V47.6769C87.9992 45.7126 86.4031 44.123 84.4306 44.123C82.4582 44.123 80.862 45.7126 80.862 47.6769V51.5904C72.7259 53.2415 66.5876 60.4196 66.5876 69V72.5538H63.019C61.0466 72.5538 59.4504 74.1433 59.4504 76.1077C59.4504 78.072 61.0466 79.6615 63.019 79.6615H105.842C107.815 79.6615 109.411 78.072 109.411 76.1077ZM98.705 93.8769H70.1562C68.1838 93.8769 66.5876 95.4664 66.5876 97.4307C66.5876 99.3951 68.1838 100.985 70.1562 100.985H98.705C100.678 100.985 102.274 99.3951 102.274 97.4307C102.274 95.4664 100.678 93.8769 98.705 93.8769Z" fill="white"/>
</g>
</g>
<defs>
<filter id="filter0_dd_138_209" x="0.5" y="0" width="167" height="192" filterUnits="userSpaceOnUse" color-interpolation-filters="sRGB">
<feFlood flood-opacity="0" result="BackgroundImageFix"/>
<feColorMatrix in="SourceAlpha" type="matrix" values="0 0 0 0 0 0 0 0 0 0 0 0 0 0 0 0 0 0 127 0" result="hardAlpha"/>
<feOffset dy="20"/>
<feGaussianBlur stdDeviation="20"/>
<feColorMatrix type="matrix" values="0 0 0 0 1 0 0 0 0 0.680498 0 0 0 0 0 0 0 0 0.29 0"/>
<feBlend mode="normal" in2="BackgroundImageFix" result="effect1_dropShadow_138_209"/>
<feColorMatrix in="SourceAlpha" type="matrix" values="0 0 0 0 0 0 0 0 0 0 0 0 0 0 0 0 0 0 127 0" result="hardAlpha"/>
<feOffset dy="5"/>
<feGaussianBlur stdDeviation="5"/>
<feColorMatrix type="matrix" values="0 0 0 0 1 0 0 0 0 0.680498 0 0 0 0 0 0 0 0 0.26 0"/>
<feBlend mode="normal" in2="effect1_dropShadow_138_209" result="effect2_dropShadow_138_209"/>
<feBlend mode="normal" in="SourceGraphic" in2="effect2_dropShadow_138_209" result="shape"/>
</filter>
<linearGradient id="paint0_linear_138_209" x1="84" y1="-22.8025" x2="84" y2="169.452" gradientUnits="userSpaceOnUse">
<stop offset="0.630208" stop-color="#FFAE00"/>
<stop offset="1" stop-color="#FFCD1E"/>
</linearGradient>
<linearGradient id="paint1_linear_138_209" x1="84" y1="20" x2="84" y2="132" gradientUnits="userSpaceOnUse">
<stop stop-color="#FF9F00"/>
<stop offset="1" stop-color="#FFB800"/>
</linearGradient>
<clipPath id="clip0_138_209">
<rect width="87" height="112" fill="white" transform="translate(40.5 20)"/>
</clipPath>
</defs>
</svg>
